<?xml version="1.0" encoding="UTF-8"?>
<svg version="1.1" xmlns="http://www.w3.org/2000/svg" width="200" height="200">
<path d="M0 0 C66 0 132 0 200 0 C200 66 200 132 200 200 C134 200 68 200 0 200 C0 134 0 68 0 0 Z " fill="#556080" transform="translate(0,0)"/>
<path d="M0 0 C5.99300189 4.96065033 10.29314402 10.681748 11.04467773 18.58544922 C11.19317994 22.29013496 11.26887126 25.98788009 11.30859375 29.6953125 C11.34297211 32.22148568 11.38554376 34.74756471 11.4375 37.2734375 C11.45598999 38.9426123 11.45598999 38.9426123 11.47485352 40.64550781 C11.54398519 43.65335665 11.54398519 43.65335665 13.74609375 46.4453125 C14.20304222 49.88816962 14.11640457 53.35032273 14.12109375 56.8203125 C14.15783203 58.23957031 14.15783203 58.23957031 14.1953125 59.6875 C14.21369248 64.04968188 14.20225902 66.69021339 11.91015625 70.484375 C9.74609375 72.4453125 9.74609375 72.4453125 6.74609375 74.4453125 C5.72827613 76.61779717 4.80267351 78.83416789 3.93359375 81.0703125 C2.23832017 85.35873879 0.58550301 88.94632264 -2.62890625 92.3203125 C-5.72688622 96.06065578 -5.8005501 99.88640621 -5.81640625 104.5703125 C-5.81882324 105.25206543 -5.82124023 105.93381836 -5.82373047 106.63623047 C-5.67078795 111.28681592 -4.95669096 114.64766197 -2.25390625 118.4453125 C0.41844069 120.37249671 3.28165099 121.77131331 6.24609375 123.1953125 C7.95078922 124.05154921 9.65520776 124.90833745 11.359375 125.765625 C12.24061035 126.20165039 13.1218457 126.63767578 14.02978516 127.08691406 C18.53662714 129.34074013 22.98170514 131.71033649 27.43359375 134.0703125 C29.0413827 134.91720598 30.64942924 135.76361075 32.2578125 136.609375 C33.98451172 137.51816406 33.98451172 137.51816406 35.74609375 138.4453125 C35.74609375 139.7653125 35.74609375 141.0853125 35.74609375 142.4453125 C19.20953744 158.79135549 -8.00504852 163.85813866 -30.11914062 163.81396484 C-39.28147178 163.63929548 -47.57627005 162.36581195 -56.25390625 159.4453125 C-56.95563965 159.20925293 -57.65737305 158.97319336 -58.38037109 158.72998047 C-69.18680579 154.9524776 -83.70353636 149.27086734 -90.25390625 139.4453125 C-82.07742371 133.64715284 -73.31023061 129.13993679 -64.40820312 124.56835938 C-63.28865234 123.97990234 -62.16910156 123.39144531 -61.015625 122.78515625 C-59.49908325 122.00192993 -59.49908325 122.00192993 -57.9519043 121.20288086 C-53.99780344 118.6270441 -51.74528229 115.91944062 -50.25390625 111.4453125 C-49.38585795 102.99557653 -49.67973612 96.97434654 -54.59765625 89.95703125 C-57.02493697 86.27603715 -58.48679472 82.30292946 -60.078125 78.20703125 C-61.73199298 74.32236459 -63.91683854 70.95091406 -66.25390625 67.4453125 C-66.51269531 65.22460937 -66.51269531 65.22460937 -66.51953125 62.6640625 C-66.52339844 61.27767578 -66.52339844 61.27767578 -66.52734375 59.86328125 C-66.51960938 58.90035156 -66.511875 57.93742187 -66.50390625 56.9453125 C-66.51164062 55.98238281 -66.519375 55.01945312 -66.52734375 54.02734375 C-66.52476563 53.10308594 -66.5221875 52.17882812 -66.51953125 51.2265625 C-66.51727539 50.38158203 -66.51501953 49.53660156 -66.51269531 48.66601562 C-66.25390625 46.4453125 -66.25390625 46.4453125 -64.25390625 43.4453125 C-63.96634745 40.60325979 -63.96634745 40.60325979 -64.015625 37.37890625 C-63.99951172 36.17041016 -63.98339844 34.96191406 -63.96679688 33.71679688 C-63.95005121 31.18820113 -63.9445903 28.65950201 -63.95117188 26.13085938 C-63.7863024 16.08445817 -61.86050668 8.72233928 -54.56640625 1.5703125 C-40.41451024 -9.77260604 -14.8974413 -10.34458502 0 0 Z " fill="#E6EBEC" transform="translate(126.25390625,36.5546875)"/>
</svg>