<svg height="18" width="18" xmlns="http://www.w3.org/2000/svg" xmlns:xlink="http://www.w3.org/1999/xlink" version="1.1" x="0px" y="0px" viewBox="0 0 256 256" enable-background="new 0 0 256 256" xml:space="preserve">
<g><g><g><path fill="#000000" d="M61.6,32.4c-15,3.2-26.4,13.6-30.6,28c-0.9,3-1.1,4.8-1.1,9.8c0,7.4,0.9,11.2,4.2,17.7c2.5,4.9,7.8,10.8,12.7,14c3.1,2.1,3.2,2.2,2.1,2.6c-12.6,5.1-21.6,12-30,23.2c-5,6.6-9.5,14.8-9,16.6c0.5,1.8,1.9,3,3.7,3c2,0,3-0.9,4.8-4.5c2.9-5.7,8-12.7,13-17.7c5.5-5.5,11-9.4,17.2-12c5.9-2.5,10.6-3.6,18.8-4.1c3.9-0.3,8.4-0.8,10-1.2c19-4.4,31.8-21,30.6-39.8C107,52,96.4,38.7,80.5,33.6c-3.4-1.1-4.8-1.3-10.4-1.4C66.5,32.1,62.7,32.2,61.6,32.4z M74.5,40c7.1,1.3,13.5,4.8,18.2,10.1c2.9,3.2,5.8,8.7,6.9,13c0.9,3.6,0.9,10.3,0,14.3C97.3,87.5,89.4,96,78.8,99.6c-3.3,1.2-4.3,1.3-9.9,1.3s-6.6-0.1-9.9-1.3c-13.1-4.5-21.5-15.9-21.6-28.9c0-5.4,0.7-8.7,3.1-13.6c4.3-9,12.6-15.2,22.6-17.1C67.4,39.3,70.2,39.3,74.5,40z"/><path fill="#000000" d="M179.7,32.5c-17.7,3.5-30.7,18-31.8,35.6c-1.2,18.9,11.5,35.4,30.6,39.8c1.6,0.4,6,0.9,9.9,1.1c11.3,0.7,19.1,3.2,27.3,8.7c8.3,5.6,16.8,15.5,21.8,25.4c0.7,1.3,1.7,2.9,2.1,3.3c1.2,1.2,3.9,1.2,5.1,0c1.7-1.7,1.7-3-0.2-6.5c-4.4-8.5-8.9-14.5-15-20.7c-6.3-6.3-13.5-11-22.6-14.6c-1.1-0.4-1-0.5,2.1-2.6c4.9-3.2,10.2-9.1,12.7-14c3.3-6.5,4.2-10.2,4.2-17.7c0-5.1-0.2-6.9-1.1-9.9c-4-14-15.6-24.8-29.9-27.7C191.5,31.9,183.2,31.8,179.7,32.5z M192.7,40c6.9,1.2,13.7,5,18.4,10.3c2.7,3,5.6,8.7,6.7,12.8c1,3.7,0.9,10.9,0,14.6C215.1,87.9,207.4,96,197,99.6c-3.3,1.2-4.3,1.3-9.9,1.3c-5.6,0-6.6-0.1-9.9-1.3c-13.1-4.5-21.5-15.9-21.6-28.9c0-5.4,0.7-8.7,3.1-13.6c4.3-9,12.6-15.2,22.6-17.1C185.5,39.3,188.4,39.3,192.7,40z"/><path fill="#000000" d="M121.9,90.1c-13.4,2.4-24.2,10.6-29.6,22.2c-2.7,5.8-3.2,8.5-3.2,16.1c0,6.2,0.1,7,1.5,11.1c2.8,8.5,8,15.4,15.2,20.2l2.4,1.7l-5,1.7c-18.3,6.5-32.7,19.2-45.1,39.7c-3.4,5.7-8.6,16.3-8.6,17.7c0,2.6,3.9,4.5,6,2.9c0.4-0.3,2.2-3.3,3.8-6.7c6.3-12.6,12.7-21.9,20.8-29.9c6.1-6,11.6-10.1,18.5-13.4c5.8-2.9,9.2-4,15.7-5.4c6.7-1.5,20.5-1.5,27.3,0c23.4,5.1,40.8,20.4,55.1,49c1.6,3.1,3.2,6,3.6,6.3c2.1,1.6,6-0.2,6-2.9c0-0.6-1.4-3.9-3-7.3c-10.5-21-22.9-35.4-38.2-44.4c-4.1-2.4-11.4-5.5-15.4-6.6c-1.1-0.3-2-0.6-2-0.6s1.2-0.9,2.5-1.8c6.2-4.1,11.9-11.4,14.4-18.4c9-24.7-8.8-50.5-35.4-51.4C126.5,89.8,123.1,89.9,121.9,90.1z M136,98.4c10.9,2.8,20,11.7,22.7,22.4c0.9,3.6,0.9,11.3,0,14.8c-3.6,13.8-16.1,23.3-30.6,23.3c-14.6,0-27-9.4-30.7-23.3c-1-3.6-1-11.1,0-14.8c2.8-10.7,11.7-19.5,22.5-22.4C124.4,97.2,131.3,97.2,136,98.4z"/></g></g></g>
</svg>