<svg height="14" width="14" xmlns="http://www.w3.org/2000/svg" xmlns:xlink="http://www.w3.org/1999/xlink" version="1.1" x="0px" y="0px" viewBox="0 0 256 256" enable-background="new 0 0 256 256" xml:space="preserve">
<g><g><path fill="#000000" d="M61.8,131.8h132.7v29.3H61.8V131.8L61.8,131.8z M61.6,72.6h132.7V102H61.6V72.6L61.6,72.6z M83.7,13.6L83.7,13.6c-40.1,0.4-72.7,31.3-73.4,65.9H10v140.1h100.2l10.8,18.7c3.1,5.4,10.9,5.4,14,0l10.8-18.7h25.7l0,0c39.8-0.7,73.7-29.2,74.4-63.7h0.1V13.7L83.7,13.6L83.7,13.6z M172,190.8h-30.6l-8.3,14.3c-2.3,4-8,4-10.3,0l-8.3-14.3H39.5V80h0.2C40.1,58.7,59,43.2,83.7,43.1v0h132.8V156h0.1C215.8,176.7,196,190.3,172,190.8L172,190.8z"/></g></g>
</svg>